# 3ds Max Wavefront OBJ Exporter v0.97b - (c)2007 guruware
# File Created: 01.02.2019 18:40:27

#
# object GeoSphere001
#

v  0.0000 0.0000 0.3937
v  0.3712 0.0000 -0.1312
v  -0.1856 0.3215 -0.1312
v  -0.1856 -0.3215 -0.1312
# 4 vertices

vn 0.4714 0.8165 0.3333
vn -0.9428 0.0000 0.3333
vn 0.4714 -0.8165 0.3333
vn 0.0000 0.0000 -1.0000
# 4 vertex normals

vt 0.3333 0.9999 0.3937
vt 0.5000 0.3918 0.3937
vt 0.8333 0.3918 0.3937
vt 0.1667 0.3918 0.3937
vt 0.6667 0.9999 0.3937
vt 0.0000 0.9999 0.3937
vt -0.1667 0.3918 0.3937
vt -0.1667 0.3918 0.3937
# 8 texture coords

o GeoSphere001
g GeoSphere001
f 1/5/1 2/2/1 3/3/1 
f 1/6/2 3/7/2 4/4/2 
f 1/1/3 4/4/3 2/2/3 
f 2/2/4 4/4/4 3/8/4 
# 4 faces

