# 3ds Max Wavefront OBJ Exporter v0.97b - (c)2007 guruware
# File Created: 01.02.2019 18:40:49

#
# object GeoSphere001
#

v  0.0000 0.0000 0.5906
v  0.3105 0.0000 0.5024
v  0.0959 0.2953 0.5024
v  0.5282 0.0000 0.2641
v  0.4064 0.2953 0.3105
v  0.1632 0.5024 0.2641
v  -0.2512 0.1825 0.5024
v  -0.1552 0.4778 0.3105
v  -0.4273 0.3105 0.2641
v  -0.2512 -0.1825 0.5024
v  -0.5024 -0.0000 0.3105
v  -0.4273 -0.3105 0.2641
v  0.0959 -0.2953 0.5024
v  -0.1552 -0.4778 0.3105
v  0.1632 -0.5024 0.2641
v  0.4064 -0.2953 0.3105
v  0.5616 -0.1825 0.0000
v  0.5616 0.1825 0.0000
v  0.4273 -0.3105 -0.2641
v  0.5024 0.0000 -0.3105
v  0.4273 0.3105 -0.2641
v  0.3471 0.4778 0.0000
v  -0.0000 0.5906 0.0000
v  0.1552 0.4778 -0.3105
v  -0.1632 0.5024 -0.2641
v  -0.3471 0.4778 0.0000
v  -0.5616 0.1825 0.0000
v  -0.4064 0.2953 -0.3105
v  -0.5282 -0.0000 -0.2641
v  -0.5616 -0.1825 0.0000
v  -0.3471 -0.4778 0.0000
v  -0.4064 -0.2953 -0.3105
v  -0.1632 -0.5024 -0.2641
v  0.0000 -0.5906 0.0000
v  0.3471 -0.4778 0.0000
v  0.1552 -0.4778 -0.3105
v  0.0000 0.0000 -0.5906
v  -0.0959 0.2953 -0.5024
v  0.2512 0.1825 -0.5024
v  -0.3105 -0.0000 -0.5024
v  -0.0959 -0.2953 -0.5024
v  0.2512 -0.1825 -0.5024
# 42 vertices

vn 0.2680 0.1947 0.9435
vn 0.7240 0.1947 0.6617
vn 0.4911 0.3568 0.7947
vn 0.4089 0.6284 0.6617
vn -0.1024 0.3151 0.9435
vn 0.0385 0.7488 0.6617
vn -0.1876 0.5774 0.7947
vn -0.4713 0.5831 0.6617
vn -0.3313 -0.0000 0.9435
vn -0.7002 0.2680 0.6617
vn -0.6071 -0.0000 0.7947
vn -0.7002 -0.2680 0.6617
vn -0.1024 -0.3151 0.9435
vn -0.4713 -0.5831 0.6617
vn -0.1876 -0.5774 0.7947
vn 0.0385 -0.7488 0.6617
vn 0.2680 -0.1947 0.9435
vn 0.4089 -0.6284 0.6617
vn 0.4911 -0.3568 0.7947
vn 0.7240 -0.1947 0.6617
vn 0.9921 0.0000 0.1256
vn 0.9050 -0.2680 -0.3304
vn 0.9822 0.0000 -0.1876
vn 0.9050 0.2680 -0.3304
vn 0.3066 0.9435 0.1256
vn 0.5346 0.7779 -0.3304
vn 0.3035 0.9342 -0.1876
vn 0.0247 0.9435 -0.3304
vn -0.8026 0.5831 0.1256
vn -0.5746 0.7488 -0.3304
vn -0.7947 0.5774 -0.1876
vn -0.8897 0.3151 -0.3304
vn -0.8026 -0.5831 0.1256
vn -0.8897 -0.3151 -0.3304
vn -0.7947 -0.5774 -0.1876
vn -0.5746 -0.7488 -0.3304
vn 0.3066 -0.9435 0.1256
vn 0.0247 -0.9435 -0.3304
vn 0.3035 -0.9342 -0.1876
vn 0.5346 -0.7779 -0.3304
vn 0.8026 0.5831 -0.1256
vn 0.5746 0.7488 0.3304
vn 0.7947 0.5774 0.1876
vn 0.8897 0.3151 0.3304
vn -0.3066 0.9435 -0.1256
vn -0.5346 0.7779 0.3304
vn -0.3035 0.9342 0.1876
vn -0.0247 0.9435 0.3304
vn -0.9921 0.0000 -0.1256
vn -0.9050 -0.2680 0.3304
vn -0.9822 0.0000 0.1876
vn -0.9050 0.2680 0.3304
vn -0.3066 -0.9435 -0.1256
vn -0.0247 -0.9435 0.3304
vn -0.3035 -0.9342 0.1876
vn -0.5346 -0.7779 0.3304
vn 0.8026 -0.5831 -0.1256
vn 0.8897 -0.3151 0.3304
vn 0.7947 -0.5773 0.1876
vn 0.5746 -0.7488 0.3304
vn 0.1024 0.3151 -0.9435
vn -0.0385 0.7488 -0.6617
vn 0.1876 0.5774 -0.7947
vn 0.4713 0.5831 -0.6617
vn -0.2680 0.1947 -0.9435
vn -0.7240 0.1947 -0.6617
vn -0.4911 0.3568 -0.7947
vn -0.4089 0.6284 -0.6617
vn -0.2680 -0.1947 -0.9435
vn -0.4089 -0.6284 -0.6617
vn -0.4911 -0.3568 -0.7947
vn -0.7240 -0.1947 -0.6617
vn 0.1024 -0.3151 -0.9435
vn 0.4713 -0.5831 -0.6617
vn 0.1876 -0.5774 -0.7947
vn -0.0385 -0.7488 -0.6617
vn 0.3313 0.0000 -0.9435
vn 0.7002 0.2680 -0.6617
vn 0.6071 0.0000 -0.7947
vn 0.7002 -0.2680 -0.6617
# 80 vertex normals

vt 0.4000 1.0000 0.5906
vt 0.5000 0.6476 0.5906
vt 0.7000 0.6476 0.5906
vt 0.9000 0.6476 0.5906
vt 0.1000 0.6476 0.5906
vt 0.3000 0.6476 0.5906
vt 0.6000 0.3524 0.5906
vt 0.8000 0.3524 0.5906
vt 0.0000 0.3524 0.5906
vt 0.2000 0.3524 0.5906
vt 0.4000 0.3524 0.5906
vt 0.5000 0.0000 0.5906
vt 0.5000 0.8238 0.5906
vt 0.7000 0.8238 0.5906
vt 0.9000 0.8238 0.5906
vt 0.1000 0.8238 0.5906
vt 0.3000 0.8238 0.5906
vt 0.6000 0.6762 0.5906
vt 0.8000 0.6762 0.5906
vt 0.0000 0.6762 0.5906
vt 0.2000 0.6762 0.5906
vt 0.4000 0.6762 0.5906
vt 0.5500 0.5000 0.5906
vt 0.7500 0.5000 0.5906
vt 0.9500 0.5000 0.5906
vt 0.1500 0.5000 0.5906
vt 0.3500 0.5000 0.5906
vt 0.4500 0.5000 0.5906
vt 0.6500 0.5000 0.5906
vt 0.8500 0.5000 0.5906
vt 0.0500 0.5000 0.5906
vt 0.2500 0.5000 0.5906
vt 0.7000 0.3238 0.5906
vt 0.9000 0.3238 0.5906
vt 0.1000 0.3238 0.5906
vt 0.3000 0.3238 0.5906
vt 0.5000 0.3238 0.5906
vt 0.6000 0.1762 0.5906
vt 0.8000 0.1762 0.5906
vt 0.0000 0.1762 0.5906
vt 0.2000 0.1762 0.5906
vt 0.4000 0.1762 0.5906
vt 0.6000 1.0000 0.5906
vt 0.8000 1.0000 0.5906
vt 0.0000 1.0000 0.5906
vt -0.1000 0.8238 0.5906
vt -0.1000 0.8238 0.5906
vt -0.1000 0.6476 0.5906
vt -0.1000 0.8238 0.5906
vt 0.2000 1.0000 0.5906
vt -0.0500 0.5000 0.5906
vt -0.1000 0.3238 0.5906
vt -0.0500 0.5000 0.5906
vt -0.0500 0.5000 0.5906
vt -0.0500 0.5000 0.5906
vt -0.1000 0.6476 0.5906
vt 0.7000 0.0000 0.5906
vt -0.1000 0.0000 0.5906
vt -0.2000 0.1762 0.5906
vt -0.1000 0.3238 0.5906
vt -0.1000 0.3238 0.5906
vt -0.2000 0.1762 0.5906
vt 0.1000 0.0000 0.5906
vt 0.3000 0.0000 0.5906
# 64 texture coords

o GeoSphere001
g GeoSphere001
f 1/43/1 2/13/1 3/14/1 
f 2/13/2 4/2/2 5/18/2 
f 2/13/3 5/18/3 3/14/3 
f 3/14/4 5/18/4 6/3/4 
f 1/44/5 3/14/5 7/15/5 
f 3/14/6 6/3/6 8/19/6 
f 3/14/7 8/19/7 7/15/7 
f 7/15/8 8/19/8 9/4/8 
f 1/45/9 7/46/9 10/16/9 
f 7/47/10 9/48/10 11/20/10 
f 7/49/11 11/20/11 10/16/11 
f 10/16/12 11/20/12 12/5/12 
f 1/50/13 10/16/13 13/17/13 
f 10/16/14 12/5/14 14/21/14 
f 10/16/15 14/21/15 13/17/15 
f 13/17/16 14/21/16 15/6/16 
f 1/1/17 13/17/17 2/13/17 
f 13/17/18 15/6/18 16/22/18 
f 13/17/19 16/22/19 2/13/19 
f 2/13/20 16/22/20 4/2/20 
f 4/2/21 17/28/21 18/23/21 
f 17/28/22 19/11/22 20/37/22 
f 17/28/23 20/37/23 18/23/23 
f 18/23/24 20/37/24 21/7/24 
f 6/3/25 22/29/25 23/24/25 
f 22/29/26 21/7/26 24/33/26 
f 22/29/27 24/33/27 23/24/27 
f 23/24/28 24/33/28 25/8/28 
f 9/4/29 26/30/29 27/25/29 
f 26/30/30 25/8/30 28/34/30 
f 26/30/31 28/34/31 27/25/31 
f 27/51/32 28/52/32 29/9/32 
f 12/5/33 30/31/33 31/26/33 
f 30/31/34 29/9/34 32/35/34 
f 30/31/35 32/35/35 31/26/35 
f 31/26/36 32/35/36 33/10/36 
f 15/6/37 34/32/37 35/27/37 
f 34/32/38 33/10/38 36/36/38 
f 34/32/39 36/36/39 35/27/39 
f 35/27/40 36/36/40 19/11/40 
f 21/7/41 22/29/41 18/23/41 
f 22/29/42 6/3/42 5/18/42 
f 22/29/43 5/18/43 18/23/43 
f 18/23/44 5/18/44 4/2/44 
f 25/8/45 26/30/45 23/24/45 
f 26/30/46 9/4/46 8/19/46 
f 26/30/47 8/19/47 23/24/47 
f 23/24/48 8/19/48 6/3/48 
f 29/9/49 30/31/49 27/53/49 
f 30/31/50 12/5/50 11/20/50 
f 30/31/51 11/20/51 27/54/51 
f 27/55/52 11/20/52 9/56/52 
f 33/10/53 34/32/53 31/26/53 
f 34/32/54 15/6/54 14/21/54 
f 34/32/55 14/21/55 31/26/55 
f 31/26/56 14/21/56 12/5/56 
f 19/11/57 17/28/57 35/27/57 
f 17/28/58 4/2/58 16/22/58 
f 17/28/59 16/22/59 35/27/59 
f 35/27/60 16/22/60 15/6/60 
f 37/57/61 38/39/61 39/38/61 
f 38/39/62 25/8/62 24/33/62 
f 38/39/63 24/33/63 39/38/63 
f 39/38/64 24/33/64 21/7/64 
f 37/58/65 40/40/65 38/59/65 
f 40/40/66 29/9/66 28/60/66 
f 40/40/67 28/61/67 38/62/67 
f 38/39/68 28/34/68 25/8/68 
f 37/63/69 41/41/69 40/40/69 
f 41/41/70 33/10/70 32/35/70 
f 41/41/71 32/35/71 40/40/71 
f 40/40/72 32/35/72 29/9/72 
f 37/64/73 42/42/73 41/41/73 
f 42/42/74 19/11/74 36/36/74 
f 42/42/75 36/36/75 41/41/75 
f 41/41/76 36/36/76 33/10/76 
f 37/12/77 39/38/77 42/42/77 
f 39/38/78 21/7/78 20/37/78 
f 39/38/79 20/37/79 42/42/79 
f 42/42/80 20/37/80 19/11/80 
# 80 faces

